<svg width="36.7" height="50" viewBox="0 0 36.7 50" xmlns="http://www.w3.org/2000/svg"><g id="svgGroup" stroke-linecap="round" fill-rule="evenodd" font-size="9pt" stroke="#000000" stroke-width="0.25mm" fill="#ffba52" style="stroke:#000000;stroke-width:0.25mm;fill:#ffba52"><path d="M 27.1 50 L 35.9 50 L 26.85 35.8 A 18.998 18.998 0 0 0 36.688 19.772 A 19.602 19.602 0 0 0 36.7 19.1 C 36.7 8.55 28.15 0 17.6 0 L 0 0 L 0 7.35 L 14.9 30.8 L 0 30.8 L 0 50 L 7.45 50 L 7.45 38.25 L 19.6 38.25 L 27.1 50 Z M 8.85 7.45 L 17.6 7.45 C 24.05 7.45 29.25 12.65 29.25 19.1 A 11.618 11.618 0 0 1 25.88 27.304 A 11.534 11.534 0 0 1 22.85 29.5 L 8.85 7.45 Z" vector-effect="non-scaling-stroke"/></g></svg>